<?xml version="1.0" encoding="UTF-8"?>
<svg id="Layer_1" xmlns="http://www.w3.org/2000/svg" version="1.1" viewBox="0 0 1080 335">
  <!-- Generator: Adobe Illustrator 30.7.0, SVG Export Plug-In . SVG Version: 2.1.4 Build 114)  -->
  <defs>
    <style>
      .st0 {
        fill: #fff;
      }

      .st1 {
        fill: #e8ae30;
      }
    </style>
  </defs>
  <g>
    <polygon class="st1" points="414.6 11 414.6 190.8 394.7 190.8 272 41.2 272 190.8 250.6 190.8 180.6 37.4 110.6 190.8 74 190.8 74 28.7 4.8 28.7 4.8 11 170.7 11 162.5 28.7 93.2 28.7 93.2 181.8 171.7 11 189.4 11 252.8 148.8 252.8 11 272.8 11 395.4 160.6 395.4 11 414.6 11"/>
    <g>
      <g>
        <polygon class="st0" points="559 11.2 519.2 97.7 431.4 11.2 414.6 11.2 514 109.1 476.9 189.9 489.9 189.9 572 11.2 559 11.2"/>
        <path class="st0" d="M1058.5,11.2v162.6h-.5L924.6,11.2h-14.5v150.3L841.1,11.2h-13l-66.3,144.3c-9.1,18.6-29.3,28.3-64.2,28.3-44,0-59.8-18.8-59.8-39.8s9.8-28.8,47-36.8l33.3-7c39.3-8,54-20,54-46.8s-23.5-46.3-67.6-46.3-73.5,16.5-74.8,54.5h11.5c1.3-20.5,13.3-44.5,60-44.5,43.5,0,57.8,16,57.8,36.5,0,19-8.3,28.5-42.3,35.3l-36.7,7.4c-29.2,5.9-47.5,14.5-53.3,33l-54.2-118h-13l-82.1,178.7h13l75.6-165.8,60.7,133c5.6,19.4,24.7,36.6,69.9,36.6,41.3,0,65-12.3,75.4-32.8l.2-.2,62.4-136.7,75.6,165.6h11.5V27.2h.5l133.4,162.6h14.5V11.2h-11.6Z"/>
      </g>
      <polygon class="st1" points="879.9 179.1 789.2 179.1 834.6 80.7 837.2 86.5 879.9 179.1"/>
    </g>
  </g>
  <g>
    <path class="st0" d="M64.4,236.1h6.7v68h-6.7v-68ZM70.8,297.8h15.4c6.3,0,11-1.5,14.1-4.4s4.7-7.4,4.7-13.3v-20c0-5.9-1.6-10.4-4.7-13.3-3.1-2.9-7.8-4.4-14.1-4.4h-15.4v-6.3h15.1c5.8,0,10.6.9,14.4,2.7s6.7,4.5,8.6,8.1,2.8,8.1,2.8,13.6v19.3c0,5.4-1,9.9-2.9,13.5s-4.8,6.3-8.6,8.1c-3.8,1.8-8.6,2.7-14.4,2.7h-15v-6.3Z"/>
    <path class="st0" d="M139.3,304.8s-1.6-.8-4.8-2.6c-3.2-1.7-5.6-4.2-7.3-7.4-1.7-3.3-2.5-7.2-2.5-11.8v-5.5c0-4.8.8-8.9,2.4-12.3s3.9-6,7-7.8c3-1.8,6.7-2.7,11-2.7,4,0,7.5.9,10.4,2.6,2.9,1.7,5,4.3,6.6,7.7,1.5,3.4,2.3,7.4,2.3,12.1v5.6h-35v-6.1h28.8v-.5c0-4.8-1.1-8.5-3.4-11.2-2.3-2.6-5.4-4-9.5-4-4.5,0-8,1.4-10.5,4.2-2.5,2.8-3.7,6.7-3.7,11.8v6.2c0,4.9,1.3,8.6,3.9,11.3,2.6,2.7,6.3,4,11.1,4,2.2,0,4.5-.5,6.7-1.4s4.1-2.3,5.9-4l4.6,4.4c-2.4,2.3-5,4.1-8,5.4s-6,1.9-9.1,1.9c-4.6.1-6.9.1-6.9.1Z"/>
    <path class="st0" d="M190.2,304.8s-1.2-.3-3.7-.8-4.8-1.3-6.9-2.3c-2.1-1-4-2.2-5.7-3.6l3.9-4.7c2.6,1.8,5.4,3.2,8.2,4.1,2.8,1,5.5,1.5,8.1,1.5,4.6,0,8.2-.8,10.8-2.4,2.5-1.6,3.8-3.8,3.8-6.7,0-2.1-.6-3.7-1.8-4.8-1.2-1.1-2.8-1.8-4.6-2.2-1.9-.4-4.5-.7-7.8-.9-.3,0-.6-.1-1-.1-.3,0-.6,0-1-.1h-.8c-3.2-.3-5.9-.8-8-1.4s-3.9-1.8-5.4-3.5c-1.4-1.7-2.2-4.2-2.2-7.4s.8-5.8,2.3-8,3.7-3.9,6.6-5c2.9-1.2,6.4-1.7,10.5-1.7,2.1,0,4.2.2,6.3.6,2.1.4,4.1,1,6.1,1.8,1.9.8,3.7,1.8,5.3,2.9l-3.9,4.6c-2.3-1.3-4.7-2.4-7.2-3.1s-4.8-1.1-7-1.1c-4.1,0-7.2.8-9.5,2.3-2.2,1.5-3.4,3.7-3.4,6.5,0,1.9.6,3.4,1.8,4.3,1.2,1,2.7,1.6,4.6,1.9,1.9.3,4.4.6,7.6.7h1.4c3.4.2,6.3.6,8.7,1.3,2.4.7,4.4,2,6,3.9s2.4,4.7,2.4,8.4c0,3.2-.8,5.8-2.4,8-1.6,2.2-4,3.9-7.1,5.1s-6.9,1.8-11.3,1.8c-2.4.1-3.7.1-3.7.1Z"/>
    <path class="st0" d="M228.5,236.1h6.7v6.7h-6.7v-6.7ZM228.5,255.5h6.7v48.6h-6.7v-48.6Z"/>
    <path class="st0" d="M257.4,302.5c-2.5-1.5-4.4-3.8-5.7-6.7s-2-6.5-2-10.6v-10.6c0-4.2.6-7.8,1.9-10.7,1.3-3,3.1-5.2,5.6-6.8,2.4-1.5,5.4-2.3,8.8-2.3,3.7,0,6.9.7,9.7,2.1,2.8,1.4,5,3.7,6.7,6.8l-1,9.4c0-2.1-.5-4.1-1.5-6s-2.4-3.4-4.3-4.6-4.1-1.8-6.6-1.8c-4,0-7.2,1.2-9.4,3.7s-3.3,5.9-3.3,10.4v10.5c0,4.4,1.1,7.8,3.3,10.2,2.2,2.4,5.3,3.6,9.4,3.6,2.5,0,4.7-.6,6.5-1.8,1.9-1.2,3.3-2.8,4.3-4.7,1-1.9,1.5-4,1.5-6.1l.7,10.2c-1.2,3-3.1,5.1-5.8,6.4-2.6,1.3-5.9,1.9-9.9,1.9-3.4-.2-6.4-1-8.9-2.5ZM261.8,323.9s-1.4-.7-4.3-2c-2.9-1.4-5.1-3.3-6.7-5.7l4.6-4.1c1.5,1.9,3.2,3.4,5.3,4.4s4.2,1.6,6.5,1.6c4.5,0,8-1.3,10.5-3.8s3.7-6,3.7-10.6v-48.1h6.7v47.1c0,4.5-.8,8.3-2.5,11.5-1.6,3.2-4,5.6-7.1,7.3-3.1,1.7-6.9,2.5-11.3,2.5-3.6-.1-5.4-.1-5.4-.1Z"/>
    <path class="st0" d="M302.6,255.5h6.7v48.6h-6.7v-48.6ZM334.8,274.7c0-4.3-1.1-7.6-3.4-10s-5.4-3.6-9.5-3.6-7.1,1.1-9.3,3.2c-2.2,2.1-3.3,5.1-3.3,9l-1-9.4c1.7-3.2,4-5.5,6.8-6.9s6.1-2.1,9.9-2.1c5.3,0,9.3,1.7,12.2,5.2,2.9,3.4,4.3,8.3,4.3,14.6v29.5h-6.7v-29.5Z"/>
    <path class="st0" d="M390.7,275c-2.6,2.4-3.9,5.8-3.9,10.3s1.4,7.8,4.1,10.2c2.8,2.4,6.6,3.6,11.6,3.6,4.5,0,8.4-1.1,11.6-3.3s5.6-5.4,7.3-9.6,2.5-9.5,2.5-15.6h6.3c0,7.6-1,14-3,19s-5.1,8.8-9.5,11.4-10.1,3.9-17.2,3.9c-4.2,0-7.9-.8-10.9-2.3s-5.3-3.8-6.9-6.7c-1.6-2.9-2.4-6.4-2.4-10.6,0-5.6,1.5-10,4.6-13.3s7.4-5.3,12.9-5.8l3.9,5.2c-4.7,0-8.4,1.2-11,3.6ZM400,278.9c-2.9-2.8-5.3-5.5-7.2-8.1-1.9-2.6-3.3-5.2-4.3-7.9-1-2.7-1.5-5.6-1.5-8.7,0-6,1.6-10.6,4.8-13.8s7.7-4.9,13.4-4.9,10.2,1.6,13.4,4.7c3.2,3.1,4.7,7.6,4.7,13.3h-6.7c0-3.7-1-6.5-3-8.5s-4.8-3-8.4-3-6.5,1.1-8.5,3.2c-2,2.1-3,5.1-3,9,0,2.2.5,4.4,1.4,6.6.9,2.1,2.2,4.2,3.9,6.3s3.9,4.5,6.6,7.2l29.6,29.8h-9.3l-25.9-25.2Z"/>
    <path class="st0" d="M470.6,236.1h6.7v68h-6.7v-68ZM477.1,297.8h15.4c6.3,0,11-1.5,14.1-4.4s4.7-7.4,4.7-13.3v-20c0-5.9-1.6-10.4-4.7-13.3-3.1-2.9-7.8-4.4-14.1-4.4h-15.4v-6.3h15.1c5.8,0,10.6.9,14.4,2.7s6.7,4.5,8.6,8.1,2.8,8.1,2.8,13.6v19.3c0,5.4-1,9.9-2.9,13.5s-4.8,6.3-8.6,8.1c-3.8,1.8-8.6,2.7-14.4,2.7h-15v-6.3h0Z"/>
    <path class="st0" d="M533.8,236.1h6.7v6.7h-6.7v-6.7ZM533.8,255.5h6.7v48.6h-6.7v-48.6Z"/>
    <path class="st0" d="M562.7,302.5c-2.5-1.5-4.4-3.8-5.7-6.7s-2-6.5-2-10.6v-10.6c0-4.2.6-7.8,1.9-10.7,1.3-3,3.1-5.2,5.6-6.8s5.4-2.3,8.8-2.3c3.7,0,6.9.7,9.7,2.1s5,3.7,6.7,6.8l-1,9.4c0-2.1-.5-4.1-1.5-6s-2.4-3.4-4.3-4.6-4.1-1.8-6.6-1.8c-4,0-7.2,1.2-9.4,3.7-2.2,2.4-3.3,5.9-3.3,10.4v10.5c0,4.4,1.1,7.8,3.3,10.2,2.2,2.4,5.3,3.6,9.4,3.6,2.5,0,4.7-.6,6.5-1.8s3.3-2.8,4.3-4.7c1-1.9,1.5-4,1.5-6.1l.7,10.2c-1.2,3-3.1,5.1-5.8,6.4s-5.9,1.9-9.9,1.9c-3.3-.2-6.3-1-8.9-2.5ZM567.2,323.9s-1.4-.7-4.3-2c-2.9-1.4-5.1-3.3-6.7-5.7l4.6-4.1c1.5,1.9,3.2,3.4,5.3,4.4s4.2,1.6,6.5,1.6c4.5,0,8-1.3,10.5-3.8s3.7-6,3.7-10.6v-48.1h6.7v47.1c0,4.5-.8,8.3-2.5,11.5-1.6,3.2-4,5.6-7.1,7.3s-6.9,2.5-11.3,2.5c-3.6-.1-5.4-.1-5.4-.1Z"/>
    <path class="st0" d="M609.4,236.1h6.7v6.7h-6.7v-6.7ZM609.4,255.5h6.7v48.6h-6.7v-48.6Z"/>
    <path class="st0" d="M628.2,255.5h21.8v5.8h-21.8v-5.8ZM636,301.1c-1.8-2.2-2.7-5.4-2.7-9.6v-50.1h6.7v50.2c0,2.1.5,3.7,1.4,4.8.9,1.1,2.3,1.7,4.2,1.7h4.6v6.3h-5.5c-4-.1-6.9-1.1-8.7-3.3Z"/>
    <path class="st0" d="M665.5,300.9c-3.1-2.6-4.7-6.3-4.7-11.1s1.4-8.1,4.3-10.6c2.8-2.5,6.9-3.8,12.1-3.8h16.1l.7,6.3h-16.7c-3.1,0-5.5.7-7.2,2.1s-2.5,3.4-2.5,6,1.1,4.9,3.2,6.4c2.1,1.5,5.1,2.3,9,2.3,4.2,0,7.4-.4,9.7-1.3,2.3-.8,3.5-2,3.5-3.6l1,6.4c-1,1-2.2,1.9-3.7,2.6s-3.2,1.3-5.2,1.7c-1.9.4-4,.6-6.3.6-5.8-.1-10.2-1.4-13.3-4ZM692.9,273.3c0-3.9-1.1-7-3.2-9.1s-5.1-3.3-8.9-3.3c-2.3,0-4.6.4-6.8,1.1s-4.2,1.8-5.9,3.2l-4.9-3.4c1.8-2.2,4.3-3.9,7.3-5.2s6.3-1.8,10-1.8c4,0,7.5.7,10.3,2.1,2.9,1.4,5,3.5,6.5,6.2s2.2,6,2.2,9.8v31.2h-6.7v-30.8h.1Z"/>
    <path class="st0" d="M720.8,291.3c0,2.1.5,3.7,1.5,4.8,1,1.1,2.4,1.7,4.2,1.7h4.5v6.3h-5.6c-3.6,0-6.4-1.1-8.4-3.4s-3-5.4-3-9.5v-55.2h6.7v55.3h.1Z"/>
    <path class="st0" d="M786.8,236.1h8.1l25,68h-7.5l-21.6-61-21.6,61h-7.5l25.1-68ZM773.3,281.3h35.7v6.3h-35.7v-6.3Z"/>
    <path class="st0" d="M835.6,302.5c-2.5-1.5-4.4-3.8-5.7-6.7s-2-6.5-2-10.6v-10.6c0-4.2.6-7.8,1.9-10.7,1.3-3,3.1-5.2,5.6-6.8s5.4-2.3,8.8-2.3c3.7,0,6.9.7,9.7,2.1s5,3.7,6.7,6.8l-1,9.4c0-2.1-.5-4.1-1.5-6s-2.4-3.4-4.3-4.6-4.1-1.8-6.6-1.8c-4,0-7.2,1.2-9.4,3.7-2.2,2.4-3.3,5.9-3.3,10.4v10.5c0,4.4,1.1,7.8,3.3,10.2,2.2,2.4,5.3,3.6,9.4,3.6,2.5,0,4.7-.6,6.5-1.8s3.3-2.8,4.3-4.7c1-1.9,1.5-4,1.5-6.1l.7,10.2c-1.2,3-3.1,5.1-5.8,6.4s-5.9,1.9-9.9,1.9c-3.3-.2-6.4-1-8.9-2.5ZM840.1,323.9s-1.4-.7-4.3-2c-2.9-1.4-5.1-3.3-6.7-5.7l4.6-4.1c1.5,1.9,3.2,3.4,5.3,4.4s4.2,1.6,6.5,1.6c4.5,0,8-1.3,10.5-3.8s3.7-6,3.7-10.6v-48.1h6.7v47.1c0,4.5-.8,8.3-2.5,11.5-1.6,3.2-4,5.6-7.1,7.3s-6.9,2.5-11.3,2.5c-3.6-.1-5.4-.1-5.4-.1Z"/>
    <path class="st0" d="M894,304.8s-1.6-.8-4.8-2.6c-3.2-1.7-5.6-4.2-7.3-7.4-1.7-3.3-2.5-7.2-2.5-11.8v-5.5c0-4.8.8-8.9,2.4-12.3,1.6-3.4,3.9-6,7-7.8,3.1-1.8,6.7-2.7,11-2.7,4,0,7.5.9,10.4,2.6,2.9,1.7,5,4.3,6.6,7.7,1.5,3.4,2.3,7.4,2.3,12.1v5.6h-35v-6.1h28.8v-.5c0-4.8-1.1-8.5-3.4-11.2-2.3-2.6-5.4-4-9.5-4-4.5,0-8,1.4-10.5,4.2-2.5,2.8-3.7,6.7-3.7,11.8v6.2c0,4.9,1.3,8.6,3.9,11.3s6.3,4,11.1,4c2.2,0,4.5-.5,6.7-1.4s4.1-2.3,5.9-4l4.6,4.4c-2.4,2.3-5,4.1-8,5.4s-6,1.9-9.1,1.9c-4.7.1-6.9.1-6.9.1Z"/>
    <path class="st0" d="M932.1,255.5h6.7v48.6h-6.7v-48.6ZM964.3,274.7c0-4.3-1.1-7.6-3.4-10-2.3-2.4-5.4-3.6-9.5-3.6s-7.1,1.1-9.3,3.2-3.3,5.1-3.3,9l-1-9.4c1.7-3.2,4-5.5,6.8-6.9s6.1-2.1,9.9-2.1c5.3,0,9.3,1.7,12.2,5.2,2.9,3.4,4.3,8.3,4.3,14.6v29.5h-6.7v-29.5Z"/>
    <path class="st0" d="M998.1,304.8s-1.6-.8-4.7-2.3c-3.1-1.6-5.4-3.9-7-7-1.5-3.1-2.3-7-2.3-11.7v-8c0-4.6.8-8.5,2.3-11.6,1.6-3.1,3.9-5.4,7-6.9s7-2.3,11.6-2.3c2.6,0,5.1.3,7.2.9,2.2.6,4.1,1.4,5.8,2.6,1.7,1.1,3.2,2.6,4.5,4.3l-5,4.4c-1.7-2-3.5-3.5-5.6-4.5s-4.3-1.5-6.8-1.5c-4.8,0-8.4,1.2-10.8,3.6-2.4,2.4-3.6,6.1-3.6,11v8c0,5,1.2,8.7,3.6,11.1,2.4,2.5,6,3.7,10.8,3.7,2.6,0,5-.5,7.2-1.4s4.1-2.4,5.9-4.3l4.3,4.3c-1.3,1.7-2.8,3.1-4.5,4.3-1.7,1.1-3.7,2-5.8,2.5-2.2.6-4.6.8-7.2.8-4.6,0-6.9,0-6.9,0Z"/>
    <path class="st0" d="M1026.2,255.5h6.9l15.9,45.1-3.5,7.5-19.3-52.6ZM1069.1,255.5l-20.6,59.9c-.7,2.2-1.7,4-2.9,5.3-1.2,1.3-2.7,2.2-4.5,2.8-1.8.6-4,.8-6.5.8h-1.9v-6.3h1.9c2.5,0,4.5-.6,6-1.7s2.7-3.1,3.8-5.9l17.9-54.9h6.8Z"/>
  </g>
</svg>