<?xml version="1.0" encoding="UTF-8"?>
<svg id="Layer_1" xmlns="http://www.w3.org/2000/svg" version="1.1" viewBox="0 0 841.89 214.55">
  <!-- Generator: Adobe Illustrator 30.8.2, SVG Export Plug-In . SVG Version: 2.1.4 Build 7)  -->
  <defs>
    <style>
      .st0 {
        fill: #191919;
      }
    </style>
  </defs>
  <g>
    <path class="st0" d="M242,87.48h-29.07c-.26,0-.52.26-.52.52v28.16c0,.26.26.52.52.52h17.78c.78,0,1.3.52,1.3,1.3v8.17c0,.78-.52,1.3-1.3,1.3h-17.78c-.26,0-.52.26-.52.52v28.29c0,.26.26.52.52.52h29.07c.78,0,1.3.52,1.3,1.3v8.17c0,.78-.52,1.3-1.3,1.3h-40.75c-.78,0-1.3-.52-1.3-1.3v-88.24c0-.78.52-1.3,1.3-1.3h40.75c.78,0,1.3.52,1.3,1.3v8.17c0,.78-.52,1.3-1.3,1.3h0Z"/>
    <path class="st0" d="M324.14,122.51v43.73c0,.78-.52,1.3-1.3,1.3h-9.73c-.78,0-1.3-.52-1.3-1.3v-42.82c0-7.66-3.5-12.07-8.56-12.07-5.58,0-9.08,4.41-9.08,11.94v42.95c0,.78-.52,1.3-1.3,1.3h-9.73c-.78,0-1.3-.52-1.3-1.3v-42.82c0-7.66-3.5-12.07-8.56-12.07-5.58,0-9.08,4.41-9.08,11.94v42.95c0,.78-.52,1.3-1.3,1.3h-9.73c-.78,0-1.3-.52-1.3-1.3v-63.45c0-.78.52-1.3,1.3-1.3h9.73c.78,0,1.3.52,1.3,1.3v3.24c0,.39.26.52.65.13,3.63-4.02,8.69-5.58,12.59-5.58,6.75,0,11.42,3.11,14.14,8.56.13.39.52.26.78-.39,3.89-6.23,10.12-8.17,14.92-8.17,11.03,0,16.87,8.3,16.87,21.93h-.01Z"/>
    <path class="st0" d="M335.3,166.24v-88.24c0-.78.52-1.3,1.3-1.3h9.86c.78,0,1.3.52,1.3,1.3v88.24c0,.78-.52,1.3-1.3,1.3h-9.86c-.78,0-1.3-.52-1.3-1.3Z"/>
    <path class="st0" d="M401.74,122.12v44.12c0,.78-.52,1.3-1.3,1.3h-9.86c-.78,0-1.3-.52-1.3-1.3v-2.85c0-.39-.26-.65-.65-.26-3.37,3.89-8.04,5.45-13.5,5.45-7.4,0-18.56-2.98-18.56-19.21s11.16-21.8,24.65-21.8h7.53c.26,0,.52-.26.52-.52v-3.76c0-7.27-4.02-12.07-9.34-12.07-4.28,0-7.53,3.24-8.04,7.92,0,.91-.52,1.3-1.3,1.3h-10.64c-.78,0-1.3-.52-1.3-1.3.91-11.16,9.73-18.69,21.54-18.69,12.59,0,21.54,8.56,21.54,21.67h0ZM389.28,146.78v-8.82c0-.26-.26-.52-.52-.52h-7.92c-6.62,0-11.42,3.5-11.42,10.9,0,6.62,3.63,9.34,8.56,9.34,5.58,0,11.29-3.63,11.29-10.9h.01Z"/>
    <path class="st0" d="M412.77,166.24v-88.24c0-.78.52-1.3,1.3-1.3h9.86c.78,0,1.3.52,1.3,1.3v49.18c0,.52.39.78.65.26l16.61-25.17c.39-.52.91-.78,1.56-.78h10.25c1.04,0,1.43.78.91,1.56l-13.5,19.72c-.13.13-.26.52-.13.78l15.57,42.56c0,.13.13.39.13.52,0,.52-.39.91-1.17.91h-10.12c-.65,0-1.3-.39-1.56-1.04l-10.51-32.57c-.13-.52-.39-.39-.65-.13l-7.79,11.29c-.13.13-.26.39-.26.65v20.5c0,.78-.52,1.3-1.3,1.3h-9.86c-.78,0-1.3-.52-1.3-1.3h.01Z"/>
    <path class="st0" d="M462.99,145.09v-46.07c0-14.27,9.34-23.36,23.36-23.36s23.49,9.08,23.49,23.36v2.08c0,.78-.52,1.3-1.3,1.3l-9.86.52c-.78,0-1.3-.52-1.3-1.3v-3.37c0-7.14-4.41-11.81-11.03-11.81s-10.9,4.67-10.9,11.81v47.75c0,7.01,4.41,11.81,10.9,11.81s11.03-4.8,11.03-11.81v-3.37c0-.78.52-1.3,1.3-1.3l9.86.52c.78,0,1.3.52,1.3,1.3v1.95c0,14.27-9.34,23.49-23.49,23.49s-23.36-9.21-23.36-23.49h0Z"/>
    <path class="st0" d="M554.08,166.5l-11.94-38.67c-.13-.39-.26-.39-.52-.39h-8.95c-.26,0-.52.26-.52.52v38.28c0,.78-.52,1.3-1.3,1.3h-9.86c-.78,0-1.3-.52-1.3-1.3v-88.24c0-.78.52-1.3,1.3-1.3h23.23c13.24,0,22.19,10.51,22.19,25.82,0,11.03-4.8,19.46-12.59,22.97-.26.26-.39.39-.26.78l13.24,39.84c0,.13.13.39.13.52,0,.52-.39.91-1.17.91h-10.12c-.65,0-1.3-.39-1.56-1.04h0ZM532.15,88v29.07c0,.26.26.52.52.52h9.6c7.01,0,11.68-5.84,11.68-14.92s-4.67-15.18-11.68-15.18h-9.6c-.26,0-.52.26-.52.52h0Z"/>
    <path class="st0" d="M618.96,76.71h9.86c.78,0,1.3.52,1.3,1.3v88.24c0,.78-.52,1.3-1.3,1.3h-9.86c-.78,0-1.3-.52-1.3-1.3v-64.23c0-.52-.39-.52-.65-.13l-12.33,23.1c-.26.65-.78.91-1.17.91-.52,0-1.04-.26-1.3-.91l-12.33-23.1c-.26-.39-.65-.39-.65.13v64.23c0,.78-.52,1.3-1.3,1.3h-9.86c-.78,0-1.3-.52-1.3-1.3v-88.24c0-.78.52-1.3,1.3-1.3h9.86c.65,0,1.17.39,1.56.91l13.62,24.52c.13.26.65.26.78,0l13.5-24.52c.26-.65.91-.91,1.56-.91h.01Z"/>
  </g>
  <g>
    <path class="st0" d="M701.69,92.83h-7.96c-.21,0-.49.22-.55.43l-6.6,24.63c-.06.21.1.43.32.43h7.96c5.81,0,10.95-4.73,13.05-12.58h0c2.13-7.96-.41-12.91-6.22-12.91Z"/>
    <path class="st0" d="M771.88,112.63c-4.63,0-8.83,3.66-10.21,8.82l-5.59,20.86c-1.41,5.27.76,8.82,5.49,8.82s8.8-3.55,10.21-8.82l5.59-20.86c1.38-5.16-.86-8.82-5.49-8.82Z"/>
    <path class="st0" d="M644.75,75.66v91.88h158.23l22.42-91.88h-180.65ZM694.68,126.61h-10c-.21,0-.49.21-.55.43l-8.36,31.19c-.17.65-.72,1.08-1.36,1.08h-8.17c-.65,0-.96-.43-.79-1.08l19.62-73.24c.17-.65.72-1.08,1.36-1.08h19.25c10.97,0,16.06,8.71,12.6,21.62h0c-3.4,12.69-12.85,21.08-23.61,21.08ZM740.79,115.1c-4.74.43-9.21,5.48-10.88,11.72l-8.42,31.4c-.17.65-.72,1.08-1.36,1.08h-8.17c-.65,0-.96-.43-.79-1.08l14.09-52.59c.17-.65.72-1.08,1.36-1.08h8.17c.65,0,.96.43.79,1.08l-1.67,6.24c-.12.43.21.43.4.11,2.96-4.63,6.97-7.96,12.03-7.96,2.15,0,3.41.54,4.42,1.18h-.01c.34.33.31.87.06,1.41l-3.7,8.17c-.31.75-.77.86-1.46.65-.77-.32-1.68-.54-2.87-.54-.65,0-1.32.11-1.99.21ZM787.86,120.8l-5.96,22.26c-2.77,10.32-11.46,17.1-22.76,17.1s-16.36-6.78-13.59-17.1l5.96-22.26c2.71-10.11,11.57-17.1,22.76-17.1s16.3,6.99,13.59,17.1Z"/>
  </g>
  <path class="st0" d="M154.6,61.93l3.99-3.05,5.58-4.27-5.56-4.29-36.75-28.39-8.64-6.67h-.01l-.06,10.92-.07,11.71c-1.87.17-3.76.41-5.66.69-3.36-.43-6.77-.67-10.24-.67-44.56,0-80.69,36.13-80.69,80.69s36.13,80.69,80.69,80.69,80.69-36.13,80.69-80.69c0-22.09-8.88-42.1-23.27-56.67ZM152.02,163.2c0,7.41-6,13.41-13.4,13.42l-81.11.09-.19-61.74c-.04-11.37,9.17-20.61,20.55-20.61h-.01s68.86.01,68.86.01v26.75l-59.5.03v29.21l64.8.07v12.77ZM150.63,58.17h0l-32.06,24.54-.23-16.49c-.75-.02-1.51-.04-2.28-.04-25.23,0-63.82,12.65-70.07,36.27-1.38,5.24-.46,8.71,1.05,16.14-8.6-9.25-10.25-22.49-4.97-34.08,11.37-24.98,48.14-40.49,76.39-41.58v-2.16h.01l.08-14.57h0s36.75,28.4,36.75,28.4l-4.67,3.57Z"/>
</svg>